{"title":"The Great Beauty ITAaudio ENGsub BDRip.flv","uid":9103594,"size":678869913,"categoryP":"video","categoryS":"movies","magnet":"?xt=urn:btih:c2feaf8238b322e3c20a892047ad31e74012cca3&amp;dn=The+Great+Beauty+ITAaudio+ENGsub+BDRip.flv&amp;tr=udp%3A%2F%2Ftracker.openbittorrent.com%3A80&amp;tr=udp%3A%2F%2Fopen.demonii.com%3A1337&amp;tr=udp%3A%2F%2Ftracker.coppersurfer.tk%3A6969&amp;tr=udp%3A%2F%2Fexodus.desync.com%3A6969","seeders":4,"leechers":0,"uploader":"globeplus","files":-1,"time":1382811665,"description":"The Great Beauty ITAaudio ENGsub BDRip.flv\n\n\nFormat                                   : Flash Video\nFile size                                : 647 MiB\nDuration                                 : 2h 20mn\nOverall bit rate                         : 643 Kbps\nTagging application                      : Yet Another Metadata Injector for FLV - Version 1.9\n\nVideo\n\nFormat                                   : AVC\nFormat/Info                              : Advanced Video Codec\nFormat profile                           : &lt;a class=&quot;__cf_email__&quot; href=&quot;/cdn-cgi/l/email-protection&quot; data-cfemail=&quot;cb89aab8aea7a2a5ae8b87fee5fa&quot;&gt;[email&amp;#160;protected]&lt;/a&gt;&lt;script cf-hash='f9e31' type=&quot;text/javascript&quot;&gt;\n/* &lt;![CDATA[ */!function(){try{var t=&quot;currentScript&quot;in document?document.currentScript:function(){for(var t=document.getElementsByTagName(&quot;script&quot;),e=t.length;e--;)if(t[e].getAttribute(&quot;cf-hash&quot;))return t[e]}();if(t&amp;&amp;t.previousSibling){var e,r,n,i,c=t.previousSibling,a=c.getAttribute(&quot;data-cfemail&quot;);if(a){for(e=&quot;&quot;,r=parseInt(a.substr(0,2),16),n=2;a.length-n;n+=2)i=parseInt(a.substr(n,2),16)^r,e+=String.fromCharCode(i);e=document.createTextNode(e),c.parentNode.replaceChild(e,c)}}}catch(u){}}();/* ]]&gt; */&lt;/script&gt;\nFormat settings, CABAC                   : No\nFormat settings, ReFrames                : 1 frame\nCodec ID                                 : 7\nDuration                                 : 2h 20mn\nBit rate                                 : 526 Kbps\nWidth                                    : 720 pixels\nHeight                                   : 306 pixels\nDisplay aspect ratio                     : 2.35:1\nFrame rate mode                          : Constant\nFrame rate                               : 24.000 fps\nColor space                              : YUV\nChroma subsampling                       : 4:2:0\nBit depth                                : 8 bits\nScan type                                : Progressive\nBits/(Pixel*Frame)                       : 0.099\nStream size                              : 537 MiB (83%)\nWriting library                          : x264 core 120 r2151 a3f4407\n\n\nAudio\n\nFormat                                   : AAC\nFormat/Info                              : Advanced Audio Codec\nFormat profile                           : LC\nCodec ID                                 : 10\nDuration                                 : 2h 20mn\nBit rate                                 : 101 Kbps\nChannel(s)                               : 2 channels\nChannel positions                        : Front: L R\nSampling rate                            : 48.0 KHz\nCompression mode                         : Lossy\nStream size                              : 108 MiB (17%)\n\n\nSTORY\n\nThe story of an aging writer who bitterly recollects his passionate, lost youth. A portrait of today's Rome. \n\n\n\n\n\n* enjoy ...\n\n\n","torrent":{"xt":"urn:btih:c2feaf8238b322e3c20a892047ad31e74012cca3","amp;dn":"The+Great+Beauty+ITAaudio+ENGsub+BDRip.flv","amp;tr":["udp%3A%2F%2Ftracker.openbittorrent.com%3A80","udp%3A%2F%2Fopen.demonii.com%3A1337","udp%3A%2F%2Ftracker.coppersurfer.tk%3A6969","udp%3A%2F%2Fexodus.desync.com%3A6969"],"infoHash":"c2feaf8238b322e3c20a892047ad31e74012cca3","infoHashBuffer":{"type":"Buffer","data":[194,254,175,130,56,179,34,227,194,10,137,32,71,173,49,231,64,18,204,163]},"announce":[],"urlList":[]}}